<svg xmlns="http://www.w3.org/2000/svg" viewBox="0 0 512 512">
  <rect width="512" height="512" rx="112" fill="#1a2540"/>
  <path d="M256 128c-44 0-80 36-80 80v64c0 44 36 80 80 80s80-36 80-80v-64c0-44-36-80-80-80zm0 32c26.5 0 48 21.5 48 48v64c0 26.5-21.5 48-48 48s-48-21.5-48-48v-64c0-26.5 21.5-48 48-48z" fill="#7dd3a8"/>
  <path d="M160 272v8c0 53 43 96 96 96s96-43 96-96v-8h-24v8c0 39.8-32.2 72-72 72s-72-32.2-72-72v-8h-24z" fill="#7dd3a8"/>
  <rect x="244" y="384" width="24" height="32" rx="6" fill="#7dd3a8"/>
</svg>
